<?xml version="1.0" encoding="UTF-8"?>
<svg id="Capa_1" data-name="Capa 1" xmlns="http://www.w3.org/2000/svg" viewBox="0 0 330.89 209.12">
  <defs>
    <style>
      .cls-1 {
        fill: #fdc50e;
      }

      .cls-2 {
        fill: #3f3f3e;
      }
    </style>
  </defs>
  <path class="cls-2" d="M239.24,164.15c.59.17,5.58,8.2,6.49,9.24l.57-.41c.94-.91,5.57-8.83,6.11-8.83h4.52s.29.27.29.29v22.4s-.27.29-.29.29h-4.23v-15.52c-1.99,2.4-3.61,5.11-5.41,7.66-.42.35-2.39.34-2.87-.08l-5.29-7.58v15.52h-4.52v-22.99c1.22.22,3.56-.29,4.62,0Z"/>
  <path class="cls-2" d="M261.75,163.95h11.89c.37,0,1.83.66,2.24.9,2.93,1.76,3.54,5.79,1.84,8.63,3.47,2.57,4.76,6.78,1.91,10.41-1.41,1.78-4.71,3.44-6.97,3.44h-10.62s-.29-.27-.29-.29v-23.09ZM266.27,172.01h6.78c1.39,0,1.39-3.93,0-3.93h-6.78v3.93ZM266.27,183.21h6.19c.13,0,1.19-.28,1.42-.35,2.38-.78,3.85-3.25,1.93-5.36-.39-.43-2.04-1.37-2.57-1.37h-6.98v7.07Z"/>
  <polygon class="cls-2" points="141.62 164.15 149.88 178.69 149.88 164.15 154.2 164.15 154.2 187.13 149.29 187.13 141.03 172.59 141.03 187.13 136.71 187.13 136.71 164.15 141.62 164.15"/>
  <path class="cls-2" d="M83.23,164.15h12.29c2.35,0,5.88,2.81,6.95,4.85,1.64,3.12,1.52,10.85-.39,13.88-1.13,1.8-4.61,4.26-6.75,4.26h-11.8s-.29-.27-.29-.29v-22.69ZM87.75,183.01h7.18c1.47,0,3.46-2.04,3.84-3.43.35-1.25.34-5.68.19-7.09-.2-1.85-1.58-3.37-3.29-3.98-.25-.09-1.39-.44-1.53-.44h-6.09s-.29.27-.29.29v14.64Z"/>
  <path class="cls-2" d="M303.63,187.13h-4.42c-1.41-2.37-1.09-8.2-2.94-10.03-.25-.24-1.32-.97-1.58-.97h-5.21v11h-4.52v-23.19h12.48c4.32,0,6.9,5.99,4.31,9.62-.24.34-1.4,1.3-1.42,1.48-.01.16.64,1,.78,1.34.19.48.35.97.5,1.47.87,3.01,1.14,6.26,2.02,9.28ZM289.47,172.01h7.57c.72,0,1.32-1.37,1.29-2.06-.02-.63-.67-1.87-1.29-1.87h-7.57v3.93Z"/>
  <path class="cls-2" d="M165.95,163.8c4.89-.66,10.57.19,12.93,5.05,1.15,2.36,1.1,7.46.88,10.13-.91,11.5-20.73,11.5-21.64,0-.5-6.28,0-14.13,7.82-15.18ZM167.73,167.74c-2.48.26-4.78,1.69-5.07,4.36-.16,1.51-.17,7.08.36,8.29,1.83,4.21,10.47,4.12,11.98-.29.41-1.2.42-6.97.2-8.35-.55-3.48-4.51-4.33-7.46-4.02Z"/>
  <path class="cls-2" d="M36.98,163.8c5.12-.69,11.54.5,13.28,6.08.6,1.94.58,9.7-.1,11.6-2.8,7.8-16.45,8.16-20.12.94-1.16-2.29-1.14-8.27-.88-10.91.38-3.83,4.08-7.21,7.81-7.71ZM38.36,167.74c-2.96.36-4.65,2.2-4.88,5.15-.36,4.56-.61,10.02,5.21,10.53,7.74.67,8.06-4.25,7.58-10.53-.34-4.48-3.94-5.63-7.92-5.14Z"/>
  <path class="cls-2" d="M230.49,164.15v4.13h-11.8v3.73h10.03v3.83s-.27.29-.29.29h-9.73v6.88h11.99v4.13h-16.51v-22.99h16.32Z"/>
  <path class="cls-2" d="M24.42,168.05c-3.65-.14-7.65-1.27-11.18.12-2.32.91-2.98,3.55-.05,3.98,1.79.26,3.84-.11,5.65.05,8.12.75,10.05,11.06,2.53,14.31-3.46,1.49-7.86,1.32-11.48.52-.4-.09-2.35-.51-2.47-.68-.42-.57,1.06-3.13,1.1-3.94,2.95.95,10.66,2.1,12.54-.92.74-1.2.64-3.07-.35-4.1-2.51-2.62-9.09.85-12.69-3.43-1.85-2.19-1.49-5.76.48-7.77,3.78-3.85,11.61-2.95,16.44-2.06l-.53,3.91Z"/>
  <polygon class="cls-2" points="123.53 164.15 123.53 168.27 111.74 168.27 111.74 172.01 121.57 172.01 121.57 176.13 111.74 176.13 111.74 183.01 123.73 183.01 123.73 187.13 107.22 187.13 107.22 164.15 123.53 164.15"/>
  <polygon class="cls-2" points="323.88 164.15 323.88 168.27 312.08 168.27 312.08 172.01 321.91 172.01 321.91 176.13 312.08 176.13 312.08 183.01 324.07 183.01 324.07 187.13 307.56 187.13 307.56 164.15 323.88 164.15"/>
  <path class="cls-1" d="M209.99,103.66c.54-.06,1.35.18,1.81.46l9.37,8.31c.82.16,3.96-4.23,5.82-4.06.54.05,1.26.54,1.7.86,1.66,1.19,3.24,3.26,4.83,4.4.27.19.57.47.94.37,1.59-.93,4.94-5.05,6.54-5.27.61-.08,1.25.04,1.75.38,2.14,2.24,5.09,4.16,7.18,6.38,1.53,1.62.58,3.78-1.46,3.64-1.93-.14-6.15-5.5-7.1-5.5-.7,0-4.62,4.31-5.86,4.95-.66.34-1,.44-1.76.31-1.75-.31-4.96-4.54-6.74-5.46l-.79.19c-1.16.93-3.32,3.55-4.76,3.71-1.09.12-2.01-.8-2.8-1.43-3.38-2.73-6.46-6.07-9.82-8.85-1.19-1.25-.67-3.19,1.13-3.4Z"/>
  <path class="cls-1" d="M123.68,105.64c2.04-.42,3.3.91,2.42,2.81-3.36,3.08-6.55,6.48-10.03,9.43-1.13.96-1.84,1.72-3.41,1.05-.97-.42-3.87-3.69-4.35-3.7-.3,0-.56.23-.79.39-1.71,1.23-3.47,3.68-5.22,4.8-.55.36-1.11.54-1.77.42-1.72-.32-5.34-5.12-6.39-5.23-.34-.04-.6.14-.87.31-1.27.82-3.02,3.08-4.33,4.12-1.12.89-2.23,1.43-3.45.3-1.04-.96-.78-1.74,0-2.76.96-1.25,4.44-4.25,5.8-5.4s2.37-2.3,4.12-1.17l5.01,4.62c.56.48,1.12-.06,1.58-.41,1.27-.99,4.38-4.68,5.72-4.9,2.24-.36,4.08,2.92,5.89,3.93.54,0,6.76-6.12,7.76-6.99.54-.47,1.68-1.49,2.31-1.62Z"/>
  <polygon class="cls-2" points="185.66 164.15 191.07 181.24 196.97 164.15 201.39 164.15 193.63 187.15 188.2 187.02 180.94 164.15 185.66 164.15"/>
  <polygon class="cls-2" points="59.05 164.15 59.05 183.01 71.04 183.01 71.04 187.13 54.52 187.13 54.52 164.15 59.05 164.15"/>
  <rect class="cls-2" x="204.93" y="164.15" width="4.52" height="22.99"/>
  <path class="cls-1" d="M149.16,88.76c-.54.54-.97,1.41-1.05,2.19-.49,4.59.35,10.04.02,14.72.31,1.61,1.6,2.86,3.25,3.04,5.5-.33,11.67.51,17.09.03,3.16-.28,3.77-2.87,3.44-5.61-.07-.62-.56-1.52-1.01-1.94-2.1-2.02-6.14.37-8.32-2.68-1.91-2.67-.32-6.3,2.94-6.67,2.53-.28,8.65-.26,11.2,0,2.07.21,3.62,1.76,3.83,3.83.57,5.61-.41,12.15-.01,17.86-.39,1.99-2.06,3.42-4.07,3.6-10.5-.52-22.01.88-32.39.06-2.86-.23-4.39-1.76-4.62-4.62.56-9.32-.73-19.48,0-28.7.16-2.01,1-3.61,2.96-4.31,15.37-.69,30.88-.09,46.31-.3,2.54.2,4.3,1.38,4.62,4.03v43.24c-.1,1.66-1.3,3.11-2.85,3.64-19.56.44-39.21.05-58.8.19-2.12-.17-3.69-1.94-3.83-4.03l.06-55.37c.39-1.85,1.84-3.34,3.78-3.49h70.01c1.77.1,3.1,1.38,3.73,2.95l.1,70.65c-.22,2.42-2.16,3.64-4.42,3.83h-40.71c-5.48-.08-6.43-7.28-.96-8.44l34.19-.02c2.01-.26,3.37-1.8,3.45-3.83v-52.87c-.04-2.53-1.61-3.82-4.03-4.03h-52.51c-1.76.14-3.34.79-3.89,2.6-.32,13.42-.04,26.91-.14,40.35.14,2.16,1.8,3.26,3.83,3.44l41.21-.1c1.61-.26,2.92-1.27,3.14-2.96l-.09-28.99c-.55-1.35-1.87-2.27-3.34-2.36-9.53.63-20.09-.81-29.51,0-.98.08-1.87.35-2.58,1.06Z"/>
  <path class="cls-1" d="M86.32,69.67c.84-.19,1.33.05,2.01.46,1.1.66,5.06,4.91,5.65,4.96.89.07,4.92-5.13,6.74-5.38.67-.09,1.25.25,1.76.62,1.94,1.37,3.66,3.65,5.63,5,2.41-.79,4.15-5.5,7.07-3.35,3.64,2.68,6.99,6.99,10.62,9.82,1.66,2-.52,3.98-2.65,3.03-1.29-1.42-2.82-2.55-4.24-3.82-.21-.19-.3-.48-.51-.67-.59-.53-4.33-3.96-4.63-4.02-.75-.15-3.69,3.84-5.37,4.01s-4.59-3.43-5.9-4.54c-.54-.46-1.44-1.44-2.08-.89-1.31,1.01-4.65,4.94-6.1,5.11-1,.12-1.9-.67-2.64-1.27-1.19-.98-5.71-4.97-6.38-6-.76-1.17-.41-2.77,1.02-3.09Z"/>
  <path class="cls-1" d="M122.69,86.38c2.41-.56,3.99,1.44,2.66,3.64-.62,1.02-3.95,4.56-3.98,5.27,0,.17,0,.32.1.47,1.03,1.49,4.73,4.95,4.39,6.73-.38,1.99-2.99,2.21-4.37.91-.98-.92-4.64-5.52-5.32-6.67-1.33-2.28.88-4.01,2.26-5.78.73-.95,3.31-4.36,4.26-4.58Z"/>
  <path class="cls-1" d="M90.85,93.46c6.77.4,14.53-.71,21.18-.05,3.18.32,3.16,3.63.6,3.93h-22.03c-2.64-.31-2.36-3.75.25-3.88Z"/>
  <path class="cls-1" d="M221.05,55.49c.89-2.32-1.3-8.03,2.26-8.45,2.85-.34,6.38.33,9.25,0,.3-.03.82-.12.98-.39.39-.66-.08-6.8.15-8.3.16-1.08.64-1.7,1.66-2.07l13.51-.03c2.51.39,2.56,3.97.16,4.46s-6.36-.19-9.01.04c-.3.03-.81.03-1.03.25-.62.62.02,7.35-.29,8.85-.08.38-.51,1.1-.84,1.33-.23.16-1.56.59-1.77.59h-9.44s-.29.27-.29.29v6.09c0,.05-.35.83-.42.95-.49.78-1.35,1.02-2.23,1.11-5.2.52-11.18-.42-16.47.05-2.35.4-4.08,5.3-7.21,2.99s2.39-5.37,3.63-6.96c.33-.23,1.44-.79,1.77-.79h15.63Z"/>
  <path class="cls-1" d="M221.2,30.97c2.09-.11,3.48,2.2,2.12,3.89-6.09,5.12-11.75,11.54-17.9,16.5-1.08.87-1.81,1.28-3.3.95s-2.25-2.64-1.03-3.7c5.89-5.13,11.45-10.99,17.4-16.01.77-.65,1.68-1.56,2.71-1.62Z"/>
  <path class="cls-1" d="M104.86,51.95h-9.54c-.16,0-1.45-.39-1.66-.51-.43-.24-.8-.77-.91-1.25-.44-1.86.39-7.67-.27-8.77-.2-.33-.52-.44-.89-.49-2.61-.34-5.98.28-8.67.02-3.1-.3-2.94-4.13-.37-4.52,2.9-.44,7.81-.38,10.81-.22.63.03,2.55.18,2.99.35.31.13.94.77,1.08,1.08.58,1.29.38,4.96.36,6.54-.02,1.17-.8,2.82,1.07,3.04,2.84.33,6.67-.45,9.39.04.79.14,1.91,1.24,1.91,2.02v6.09s.27.29.29.29h15.53c1.06,0,5.2,3.89,5.77,4.84,1.23,2.06-.95,3.97-3.13,3.32-1.72-.52-2.45-2.79-4.5-3.36-1.24-.34-1.79-.07-2.85-.08-4.17-.03-9.78.44-13.75-.03-4.2-.5-1.72-5.65-2.68-8.43Z"/>
  <path class="cls-1" d="M109.73,31.16c.68-.08,1.56.36,2.11.75,5.2,5.02,10.83,9.62,16.03,14.63.64.62,2.6,2.39,2.82,3.08.74,2.36-2.12,3.67-3.99,2.61-5.3-5.11-11.02-9.82-16.33-14.92-.79-.76-2.87-2.55-2.94-3.56-.09-1.3,1.07-2.45,2.3-2.59Z"/>
  <path class="cls-1" d="M189.35,21.53c.76-.15,1.21,0,1.71.56,2.6,2.93-4.99,7.16-4.81,8.92.09.83,4.83,4.88,5.18,6.23.43,1.05-.23,2-.85,2.81-.69.88-4.74,4.78-4.67,5.48.06.64,3.19,3.29,3.66,4.38.71,1.66-.05,2.41-1.05,3.61-2.5,2.99-5.82,6.79-8.55,9.53-2.32,2.33-4.69,0-3.39-2.4,2.15-2.8,4.74-5.24,7.02-7.91.49-.58,1.65-1.61,1.09-2.27-1.61-2.15-5.16-3.96-2.95-6.86.66-.88,4.82-5.05,4.87-5.54.03-.31-.19-.53-.35-.75-1.12-1.57-3.48-3.33-4.49-4.95-1.16-1.86-.09-2.84,1.05-4.19,1.39-1.67,3.4-4.01,4.92-5.5.45-.44.98-1.01,1.62-1.14Z"/>
  <path class="cls-1" d="M152.32,57.17c.74.84,3.3,3.22,3.45,4.12.3,1.83-.89,3.35-2.72,2.53-2.91-3.16-5.98-6.24-8.77-9.51-.55-.64-1.87-1.99-2.02-2.7-.51-2.48,3.07-4.18,3.9-6.23-1.7-2.47-4.46-4.41-5.68-7.14-.19-1.73,3.28-4.57,4.39-5.94.53-.65,1.21-1.21.7-2.08-.41-.69-2.38-2.42-3.06-3.23-1.06-1.26-3.25-3.36-1.46-5,1.25-1.15,2.41-.15,3.34.77,1.58,1.56,3.93,4.16,5.3,5.91.6.77,1.33,1.6,1.11,2.65-.19.91-2.43,3.29-3.16,4.12-.45.51-2.32,2.03-2.22,2.61.17.99,5.14,5.1,5.57,6.61,1.2,2.1-3.87,5.22-3.84,6.4l5.19,6.1Z"/>
  <path class="cls-1" d="M165.55,25.27c1.68-.38,2.78.8,2.82,2.41-.59,7.04.76,15.32,0,22.21-.36,3.23-4.21,3.01-4.53-.58.52-6.86-.67-14.68.01-21.42.1-1,.62-2.37,1.71-2.61Z"/>
  <path class="cls-1" d="M165.35,53.17c.85-.2,1.51,0,2.21.46,1.17.76,6.2,4.91,6.89,5.88,1.48,2.09-.32,4.85-2.73,3.71-1.03-.49-5.19-4.38-5.62-4.4-.69-.02-4.57,3.87-5.8,4.42-1.03.46-2.03.32-2.76-.59-1.8-2.26.97-4.11,2.47-5.4.78-.67,4.72-3.95,5.34-4.09Z"/>
  <path class="cls-1" d="M250.28,68.52c.79.8.52,1.97-.13,2.78-2.49,1.76-4.73,4.67-7.18,6.38-1.1.77-1.89.84-3.03.09-1.68-1.1-3.3-3.33-4.83-4.41-.3-.21-.57-.44-.98-.4-.86.09-5.03,5.13-6.83,5.58-2.24.55-5.15-4.13-6.11-3.96-.26.05-3.54,2.94-4.07,3.4-1.84,1.61-3.62,3.34-5.43,4.99-2.14,1.09-4.57-.68-2.9-2.9,3.38-2.74,6.35-6.02,9.71-8.77.57-.46,1.67-1.5,2.31-1.63,2.12-.41,4.21,3.22,6.03,3.89.32-.02.56-.22.8-.4,1.64-1.15,3.81-4.03,5.53-4.88,1.6-.79,2.55.23,3.7,1.16.72.58,4.01,3.93,4.53,3.93.44-.21.91-.58,1.28-.89,1.65-1.4,5.35-6.24,7.6-3.96Z"/>
  <path class="cls-1" d="M221.98,91.49l22.76-.05c3.12.33,2.99,4.01.2,4.32h-22.81c-2.55-.3-2.52-3.68-.15-4.28Z"/>
  <path class="cls-1" d="M210.38,84.61c1.04-.24,1.81.02,2.62.64,1.13.87,4.44,5.08,5.39,6.41,1.25,1.76.86,2.44-.28,4.01-.85,1.16-4.49,5.78-5.43,6.36-2.23,1.38-4.81-.57-3.37-3.17.58-1.05,4.08-4.71,4.08-5.34,0-.27-.15-.47-.29-.68-.8-1.23-3.77-3.96-4.13-5.11s.14-2.82,1.43-3.11Z"/>
</svg>