<?xml version="1.0" encoding="UTF-8"?>
<svg id="Capa_1" data-name="Capa 1" xmlns="http://www.w3.org/2000/svg" viewBox="0 0 822.72 169.44">
  <defs>
    <style>
      .cls-1 {
        fill: #fcc40d;
      }

      .cls-2 {
        fill: #3c3c3b;
      }
    </style>
  </defs>
  <g>
    <path class="cls-1" d="M153.23,81.33c.95.97,1.42,2.52,1.53,3.86v58.5c-.09,3.41-2.29,5.58-5.64,5.87h-78.72c-2.91-.26-5.08-2.22-5.4-5.15v-75.99c.28-2.85,2.55-4.99,5.4-5.15l96.4.07c2.85.6,4.5,2.69,4.74,5.57v94.68c-.26,3.08-2.01,5.25-5.16,5.63h-58.31c-6.33-.99-6.58-9.74-.46-11.25h46.53c2.97-.1,5.5-2.08,5.64-5.17v-73.11c-.09-2.09-1.49-4.02-3.48-4.68-25.26-.46-50.67-.23-75.96-.12-1.75.7-3.23,2.16-3.6,4.08l.02,55.11c.58,2.01,2.27,3.73,4.42,3.97h57.11c2.33-.15,4.22-1.96,4.65-4.22v-38.54c-.4-2.07-2.28-3.99-4.42-4.22l-41.49.02c-2.73.61-4.2,2.37-4.46,5.14.47,5.99-.67,13,.06,18.86.32,2.57,2.05,4.32,4.61,4.74,7.52-.49,15.86.65,23.28,0,6.22-.54,6.58-9.61,1.55-11.39-2-.71-4.02-.14-6.05-.43-6.14-.88-6.75-10.76,1.38-11.44,3.01-.25,13.61-.38,16.09.46,2.25.76,3.49,2.9,3.7,5.17.68,7.48-.51,15.91.01,23.49-.28,3.19-2.45,5.36-5.64,5.63-14.61-.84-30.41,1.08-44.89,0-2.88-.22-5.09-1.75-5.63-4.68v-42.19c.24-2.8,2.68-4.74,5.39-4.91h62.64c1.45.1,3.09.74,4.1,1.77Z"/>
    <g>
      <path class="cls-1" d="M3.3,20.67c3.56-.51,12.78-.39,16.5-.07,1.9.16,3.41.72,3.69,2.79.45,3.29-.42,7.52,0,10.78.1.8.51,1.21,1.32,1.32,3.6.47,11.21-.88,14.14.49.37.17.73.36.98.7,1.25,1.65.3,7.18.59,9.47.05.41.09.73.49.95l20.76.11c1.05.07,2.26.59,3.11,1.21.79.58,4.81,4.35,5.27,5.04,1.84,2.81-.6,5.62-3.77,4.97-2.97-.61-3.88-4.52-7.52-4.95-6.83-.81-15.1.6-22.06-.02-4.95-.44-2.76-7-3.22-10.45-.1-.78-.29-.97-1.08-1.08-3.69-.49-8.43.38-12.25,0-2.91-.29-3.49-1.46-3.72-4.2-.2-2.36-.02-5.25-.02-7.67,0-1.67.78-2.94-1.79-3.23-3.67-.41-8.07.37-11.77.01s-3.91-5.58.31-6.18Z"/>
      <path class="cls-1" d="M200.16,42c-.68.68-.07,7.29-.35,8.87-.3,1.68-1.61,2.2-3.17,2.34-6.95.63-15.22-.79-22.06.02-3.72.44-4.73,4.72-7.95,5.01s-5.1-2.51-3.24-5.16c.52-.74,4.34-4.31,5.16-4.91.67-.49,1.49-.81,2.26-1.09l21.61-.22c.4-.22.44-.54.49-.95.5-3.91-1.95-10.2,3.7-10.68,2.15-.18,11.96.42,12.95-.25.45-.31.56-1.02.62-1.54.34-3.27-.43-7.33.02-10.52.26-1.86,1.78-2.4,3.45-2.55,3.78-.32,13.13-.45,16.74.07,4.2.6,3.88,5.67.77,6.15-3.51.54-8.3-.33-11.99,0-1.3.12-2.11.36-2.28,1.8-.38,3.25.42,7.3-.02,10.53-.3,2.21-1.96,2.63-3.93,2.79-3.7.29-7.85-.33-11.54-.02-.37.03-.99.04-1.25.31Z"/>
      <path class="cls-1" d="M192.85,13.23c3.05-.3,5.3,3.59,2.7,5.83l-25.23,22.97c-2.51,1.95-7.11-.41-5.62-3.69,8.03-8.38,17.16-15.78,25.55-23.85.73-.61,1.63-1.17,2.59-1.26Z"/>
      <path class="cls-1" d="M40.01,13.47c.89-.1,2.1.4,2.81.92,6.32,5.99,12.96,11.66,19.32,17.61,1.29,1.2,6.53,5.84,6.85,7.07.78,3.01-3.64,5.24-5.87,3.22l-25.58-23.58c-1.64-2.03.03-4.95,2.47-5.23Z"/>
      <g>
        <path class="cls-1" d="M149.17.29c2.4-.5,3.64,1.92,3.07,4.03-.65,2.42-6.26,6.33-7.27,8.94.06.67,5.43,5.98,6.29,7.13,1.43,1.91,1.43,3.08,0,4.99-1.64,2.19-4.63,4.51-6.1,6.61-1.29,1.85.45,2.44,1.56,3.71,2.44,2.77,4.72,4.37,1.92,7.91-3.74,4.72-8.61,9.01-12.35,13.79-2.27,2.56-5.58,1-5.03-2.39.14-.85,1-1.85,1.54-2.53,2.82-3.53,6.54-6.8,9.36-10.3.6-.74,1.19-1.31.61-2.29-.51-.86-2.71-2.71-3.49-3.7-2.36-2.95-1.99-3.69.24-6.48,1.64-2.04,3.8-3.98,5.51-6,.58-.72.36-1.12-.11-1.79-1.5-2.11-5.36-5.03-6.44-7.22-.74-1.5-.24-2.82.69-4.04,1.95-2.55,5.72-6.73,8.03-9,.55-.54,1.17-1.21,1.98-1.38Z"/>
        <path class="cls-1" d="M84.15.29c1.11-.25,1.79.27,2.59.91,1.98,1.57,5.94,6.28,7.67,8.39s2.93,2.94,1.28,5.6c-.85,1.36-6.6,7.02-6.6,7.71.29.63.79,1.27,1.24,1.8,1.42,1.69,6,5.87,6.49,7.66.8,2.93-4.42,6.05-5.42,8.5,3.66,4.7,7.95,8.87,11.71,13.49,1.18,2.96-1.97,6.03-4.51,3.31-3.84-5.05-9.45-9.62-13.19-14.63-2.6-3.49,1.38-5.78,3.48-8.26.83-.98,1.44-1.34.59-2.52-1.71-2.39-4.77-4.75-6.48-7.19-1.08-1.54-1.02-2.77.04-4.27.95-1.35,6.35-6.64,6.44-7.49.04-.43-.16-.72-.37-1.05-1.23-1.9-4.36-4.34-5.86-6.37-.91-1.22-1.64-2.48-.91-4.01.24-.51,1.25-1.44,1.8-1.57Z"/>
        <path class="cls-1" d="M116.54,5.57c2.49-.51,3.7.82,3.91,3.17.88,9.76-.68,20.8,0,30.69-.47,3.84-5.63,3.82-6.01-.48-.86-9.69.66-20.63,0-30.45.21-1.28.68-2.65,2.09-2.94Z"/>
        <path class="cls-1" d="M116.3,43.67c1.05-.24,1.89-.05,2.79.47,1.52.87,8.17,6.33,9.37,7.66,1.61,1.78,1.65,4.35-.45,5.73-1.01.67-2.04.49-3.09-.04-2.11-1.07-4.79-4.2-6.88-5.58-.25-.16-.53-.38-.83-.37-.66.02-6.16,5.23-7.7,5.96-3.43,1.63-5.92-2.27-3.93-5.13.97-1.39,7.53-6.55,9.24-7.78.4-.29,1.03-.81,1.48-.91Z"/>
      </g>
    </g>
    <g>
      <path class="cls-1" d="M177,112.93c.53-.12,1.28-.11,1.82,0,1.8.38,10.09,8.6,12.17,10.37.62.53,1.36,1.13,2.04,1.56.49,0,4.45-3.91,5.32-4.52,2.07-1.45,3.01-1.32,4.99.2,2.14,1.65,4.39,4.5,6.48,5.98,1.43,1.01,2.13-.13,3.24-1.07,1.39-1.18,5.38-5.39,6.85-5.62,1.13-.18,1.96.04,2.86.7,1.81,1.33,8.92,7.53,10.09,9.1,1.95,2.62-.72,5.14-3.31,4.26s-5.76-5.46-8.2-6.91c-1.12-.67-2.14.58-3.02,1.33-2.44,2.09-5.9,7.09-9.34,5.02-2.44-1.47-4.99-4.92-7.33-6.57-.55-.38-1.07-.75-1.69-.25-1.55,1.13-4.46,4.75-6.24,5.03-2.03.32-2.75-.62-4.19-1.78-4.63-3.75-8.88-8.36-13.53-12.13-1.49-1.34-1.02-4.26.99-4.72Z"/>
      <path class="cls-1" d="M186.27,78.69c-1.87,1.65-4.43,4.6-6.44,5.91-1.23.81-3.09.64-4.09-.47-1.9-2.08.35-3.75,1.81-5.17,3.49-3.39,8.01-7.46,11.76-10.55,1.88-1.55,3.1-3.1,5.6-1.52,1.06.67,4.94,4.71,5.57,4.77.51.04,1.03-.45,1.42-.74,2.26-1.69,4.7-4.89,7.1-6.33,1.39-.83,2.43-.92,3.81,0,2.4,1.6,4.73,4.56,7.08,6.35.44.35,1.03.35,1.47,0,2.15-1.52,6.67-7.02,9.13-7.19,2.64-.19,3.88,2.66,2.14,4.79-1.52,1.86-5.79,5.37-7.8,7.07-1.48,1.25-2.79,2.85-4.91,2.5-1.08-.18-4.39-3.26-5.41-4.18-1.37-1.22-2.77-3.86-4.68-2.52-2.02,1.42-4.21,4.12-6.25,5.74-1.63,1.3-2.66,2.06-4.71.88-1.06-.61-5.32-4.95-5.84-4.95-.44,0-5.93,4.87-6.76,5.6Z"/>
      <g>
        <path class="cls-1" d="M194.28,96.16l30.89-.06c3.97.27,4.36,5.24.48,6h-31.44c-3.66-.58-3.59-5.33.06-5.94Z"/>
        <path class="cls-1" d="M178.69,86.56c.67-.09,1.71.14,2.3.46,1.09.61,7.48,8.39,8.41,9.82.87,1.33,1.15,2.16.39,3.7-.52,1.04-7.66,9.57-8.56,10.14-3.23,2.06-6.87-.96-4.6-4.6,1.47-2.36,4.1-4.67,5.69-7.02.08-.44-4.92-6.04-5.59-7.06s-1.02-1.39-.87-2.74c.14-1.26,1.6-2.54,2.83-2.71Z"/>
      </g>
    </g>
    <g>
      <path class="cls-1" d="M59.93,115.33c2.3-.17,3.98,2.33,2.56,4.25-4.83,4.29-9.28,9.21-14.26,13.32-4.62,3.81-6.45-2.27-10.19-3.98-.52,0-.81.23-1.21.5-1.84,1.28-4.1,4.2-6.01,5.74-.95.77-1.95,1.59-3.24,1.35-2.47-.46-7.82-7.3-8.98-7.33-.8-.02-5.15,4.55-6.12,5.39-1.56,1.35-2.86,2.74-5.06,1.69-1.75-.84-1.95-2.48-.83-3.97,1.51-2.02,6.87-6.75,9-8.5,1.73-1.43,2.77-2.23,4.88-.8,2.29,1.55,4.53,4.6,6.76,6.19.79.57.88.57,1.68,0,2.3-1.64,4.58-4.83,6.96-6.47.48-.33,1.42-.86,1.98-.91,1.92-.19,5.42,3.99,6.89,5.24.55.46,1.21.17,1.69-.25,3.62-3.16,7.1-7.06,10.8-10.06.78-.63,1.67-1.32,2.7-1.4Z"/>
      <path class="cls-1" d="M55.03,84.03c-3.15-2.8-6.11-5.83-9.37-8.51l-.55.09c-1.86,1.47-5.06,5.73-7.54,5.39-1.91-.26-6.09-5.19-7.81-6.58-.8-.65-1.48-1.47-2.54-.85-.76.45-2.38,2.49-3.22,3.25-1.06.95-3.69,3.51-4.94,3.7-1.97.29-3.5-1.52-4.91-2.74-1.76-1.53-6.07-5.2-7.32-6.83-1.68-2.18-.56-4.98,2.14-4.79,2.13.15,5.93,4.75,7.71,6.22.76.63,1.69,1.69,2.65.98l6.84-6.35c1.37-.91,2.62-.87,3.94.1,2.34,1.72,4.72,4.89,6.96,6.47.63.44.95.69,1.69.25,1.19-.7,3.27-3.47,4.68-4.43,2.78-1.9,4.44.37,6.47,2.14,3.29,2.86,6.96,6.29,10.08,9.35,1.7,1.67,4.97,4.17,1.67,6.22-2.57,1.6-4.87-1.52-6.62-3.08Z"/>
      <path class="cls-1" d="M58.73,88.96c.79-.06,1.45.22,2.09.67,4.53,3.15-3.34,8.67-4.88,11.66-.16.82,5.78,6.79,6.15,8.4.88,3.88-3.3,5.5-6.07,2.71-1.18-1.19-6.79-8.12-7.41-9.38-.65-1.32-.53-2.35.23-3.55.93-1.47,7.3-9.43,8.41-10.05.33-.18,1.11-.44,1.48-.46Z"/>
      <path class="cls-1" d="M13.86,99.04l29.93-.06c3.58.3,3.74,5,0,5.27-9.43-.7-20.24.94-29.51,0-3.83-.39-3.82-4.69-.42-5.21Z"/>
    </g>
  </g>
  <path class="cls-2" d="M397.43,105.72c.11.42-.17.48-.36.72-.51.66-3.07,3.41-3.96,2.63.28-.85,2-3.2,2.76-3.35.48-.09,1.05.04,1.55,0Z"/>
  <path class="cls-2" d="M702.39,83.91v-39.66s.33-.36.36-.36h19.91c.45,0,2.56.74,3.09.99,5.68,2.69,7.49,10.29,4.04,15.43,1.71,1.54,3.72,3.15,4.79,5.22,3.69,7.17-.87,14.49-7.8,17.22-.88.35-3.29,1.16-4.12,1.16h-20.27ZM710.3,57.55h11.88c.77,0,1.6-2.44,1.58-3.24-.02-.84-.87-3.24-1.82-3.24h-11.64v6.47ZM710.3,76.72h11.64c.48,0,2.89-1.06,3.41-1.39,4.5-2.92,2.99-8.25-1.68-9.92-.5-.18-2.28-.67-2.68-.67h-10.68v11.98Z"/>
  <path class="cls-2" d="M663.88,44.37c3.99,5.2,7.35,10.94,11.39,16.06l10.8-16.06h8.4v39.3h-7.68v-26.84l-9.24,13.42c-.47.39-4.3.39-4.81.02-3.19-4.45-6.08-9.15-9.46-13.44v26.84h-7.44v-39.3h8.04Z"/>
  <polygon class="cls-2" points="509.96 69.29 509.96 44.37 517.4 44.37 517.4 83.67 509 83.67 494.85 58.51 494.85 83.67 487.17 83.67 487.17 44.37 495.45 44.37 509.96 69.29"/>
  <path class="cls-2" d="M395.52,83.91v-39.78h20.51c4.37,0,10.38,4.72,12.4,8.47,2.13,3.97,2.04,12.96,1.65,17.54-.59,6.93-8.33,13.77-15.24,13.77h-19.31ZM403.19,76.72h11.4c3.01,0,6.74-3.32,7.49-6.18.62-2.38.58-11.49-.22-13.78s-4.04-5.45-6.54-5.45h-12.12v25.4Z"/>
  <path class="cls-2" d="M316.52,43.48c8.49-.95,17.86.91,21.61,9.43,1.68,3.82,1.81,16.21.64,20.22-4.49,15.31-31.76,15.24-36.04-.19-.89-3.19-.94-14.29-.2-17.56,1.4-6.17,7.78-11.21,13.99-11.91ZM329.21,53.08c-4.59-4.51-18.25-3.59-19.11,4.35-.32,2.93-.29,9.75,0,12.7.98,9.67,20.37,9.67,21.35,0,.31-3.03.29-9.42.01-12.47-.15-1.64-1.1-3.44-2.25-4.58Z"/>
  <path class="cls-2" d="M538.7,43.48c8.17-.83,16.75.59,20.96,8.4,2.17,4.03,2.05,14.05,1.65,18.74-1.56,18.25-35.81,19.26-37.21-1.2-.79-11.47.34-24.49,14.6-25.94ZM539.18,50.66c-2.77.37-5.74,2.67-6.67,5.32-.79,2.26-.71,10.98-.48,13.68.86,9.94,18.97,10.26,21.29,1.36.6-2.31.59-12.36-.1-14.62-1.8-5.95-8.82-6.44-14.05-5.74Z"/>
  <path class="cls-2" d="M294.95,44.16l-.69,6.92c-1.7-.27-3.44-.55-5.16-.72-4.42-.42-12.2-1.2-15.83,1.68-3.17,2.52-2.05,5.65,1.9,5.99s7.66-.41,11.69.54c12.54,2.95,13.71,19.19,1.79,24.18-7.58,3.17-16.44,1.52-24.16-.28.42-.88,2.11-6.56,2.55-6.69,2.7.56,5.37,1.38,8.13,1.66,5.39.53,15.1,0,14.01-7.77-.89-6.32-10.68-4.36-14.98-4.69-7.52-.56-12.79-7.04-9.35-14.4,4.54-9.7,21.48-7.86,30.08-6.43Z"/>
  <path class="cls-2" d="M648.4,44.37v6.95h-20.15v6.11s.33.36.36.36h16.68v6.95h-17.04v11.98h20.87v6.95h-28.55v-39.3h27.83Z"/>
  <path class="cls-2" d="M464.38,44.37v6.95h-20.15v6.11s.33.36.36.36h16.68v6.95h-17.04v11.98h20.87v6.95h-28.31v-39.3h27.59Z"/>
  <polygon class="cls-2" points="571.26 44.37 580.86 73.85 590.58 44.37 598.74 44.37 585.76 83.65 576.29 83.69 563.47 44.37 571.26 44.37"/>
  <polygon class="cls-2" points="353.77 44.37 353.77 76.72 374.4 76.72 374.4 83.67 346.09 83.67 346.09 44.37 353.77 44.37"/>
  <rect class="cls-2" x="604.73" y="44.37" width="7.68" height="39.3"/>
  <path class="cls-2" d="M763.69,43.89c9.04.96,12.63,11.89,5.88,18.35-.29.28-.82.26-.73.69,3.63,6.3,3.44,13.95,5.77,20.75h-7.8c-2.17-4.44-1.93-10.55-3.67-15.02-.58-1.49-2.85-3.91-4.48-3.91h-8.52v18.93h-7.68v-39.78h21.23ZM750.13,57.55h13.32c1.2,0,1.87-2.45,1.81-3.48s-.93-2.99-2.05-2.99h-13.08v6.47Z"/>
  <polygon class="cls-2" points="809.15 44.37 809.15 51.32 789 51.32 789 57.79 806.04 57.79 806.04 64.74 789 64.74 789 76.72 809.63 76.72 809.63 83.67 781.32 83.67 781.32 44.37 809.15 44.37"/>
  <path class="cls-2" d="M551.35,110.03c2.74.39,4.4,2.75,3.56,5.47-.32,1.03-1.02,1.14-1.61,1.7-.63.59.44.48.89.77,1.94,1.23,2.12,4.56.84,6.29-.36.48-1.97,1.59-2.48,1.59h-8.76v-15.82c2.35.24,5.29-.32,7.56,0ZM545.47,116.98h5.16c.3,0,1.9-.68,2.15-.97.79-.91.83-2.89-.09-3.72-.31-.28-1.96-.82-2.3-.82h-4.92v5.51ZM550.87,118.42c-1.68-.2-3.68.15-5.4,0v5.99h6.36c1.03,0,2.12-1.27,2.26-2.3.33-2.42-.93-3.42-3.22-3.69Z"/>
  <path class="cls-2" d="M417.59,123.22v-13.18h1.92v15.82c-.73-.08-1.7.24-2.28-.24l-9-13.18v13.42h-1.68v-15.82c.73.06,1.63-.25,2.17.35l8.87,12.83Z"/>
  <path class="cls-2" d="M594.9,123.22v-13.18h1.92v15.82c-.74-.08-1.69.24-2.28-.24l-9-13.18v13.42h-1.68v-15.82c.67.06,1.5-.22,2.04.24,3.02,4.28,5.76,8.85,9,12.94Z"/>
  <path class="cls-2" d="M292.11,110.03c.67.06,1.5-.22,2.04.24l9,13.18v-13.42h1.92v15.82c-.8-.08-1.81.28-2.41-.35-2.93-4.28-5.68-8.78-8.87-12.83v13.18h-1.68v-15.82Z"/>
  <path class="cls-2" d="M285.15,123.22v-13.18h1.92v15.82c-.73-.08-1.7.24-2.28-.24l-9-13.18v13.42h-1.68v-15.82c.73.06,1.63-.25,2.17.35l8.87,12.83Z"/>
  <path class="cls-2" d="M472.89,110.03c4.3.61,5.38,5.97,1.56,8.03,2.74,1.9.96,5.25,2.39,7.79-.54-.07-1.69.23-2.04-.23-.76-1.01.02-5.07-1.09-6.1-.1-.09-1.01-.61-1.07-.61h-6.12v6.95h-1.92v-15.82c2.57.26,5.8-.35,8.28,0ZM466.53,117.22h6.12c.08,0,1.15-.49,1.31-.61,1.14-.82,1.42-3.2.37-4.19-.29-.27-1.86-.95-2.16-.95h-5.64v5.75Z"/>
  <path class="cls-2" d="M688.23,125.85v-15.82h8.04c.32,0,2.22.76,2.6,1,4.09,2.57,4,11.53-.29,14.02-.35.21-1.79.8-2.07.8h-8.28ZM690.15,124.41h5.64c.21,0,2.13-.97,2.4-1.19,2.86-2.38,2.55-10.15-1.56-11.4-.19-.06-1.71-.35-1.81-.35h-4.68v12.94Z"/>
  <path class="cls-2" d="M763.09,125.85v-15.82h8.04c.27,0,2.1.71,2.45.91,4,2.34,4.05,11.21.29,13.81-.4.28-2.12,1.09-2.5,1.09h-8.28ZM765.01,124.41h5.4c.31,0,2.02-.76,2.36-1,3.04-2.15,2.89-10-.97-11.41-.34-.13-1.87-.53-2.11-.53h-4.68v12.94Z"/>
  <path class="cls-2" d="M671.79,110.03c4.39.59,5.57,6.08,1.56,8.03,2.74,1.63,1.25,5.25,2.4,7.67,0,.18-1.72.2-1.89.09-.86-.54.31-6.92-2.31-6.92h-6.12v6.95h-1.68v-15.82c2.51.24,5.6-.33,8.04,0ZM665.44,117.22h6.12c.34,0,1.54-.73,1.8-1.07.81-1.04.83-2.81-.12-3.72-.35-.34-1.99-.95-2.4-.95h-5.4v5.75Z"/>
  <path class="cls-2" d="M316.04,109.62c11.76-1.27,11.8,18.58-.68,16.6-8.05-1.27-8.07-15.66.68-16.6ZM315.56,111.29c-6.17,1.05-6.12,14.76,2.52,13.54,7.05-1,6.91-15.14-2.52-13.54Z"/>
  <path class="cls-2" d="M393.3,109.62c12.01-1.57,11.67,19.49-1.06,16.51-7.73-1.81-7.35-15.41,1.06-16.51ZM392.81,111.29c-5.65.95-6,12.4.29,13.5,9.07,1.58,9.08-12.46,2.95-13.5-.85-.14-2.4-.14-3.24,0Z"/>
  <path class="cls-2" d="M750.08,109.62c11.56-1.22,11.66,18.77-.92,16.6-7.82-1.35-8.05-15.66.92-16.6ZM755.08,123.37c3-3,2.38-11.26-2.49-12.08-6.23-1.04-8.76,4.43-7.09,9.72,1.27,4.02,6.65,5.3,9.58,2.36Z"/>
  <path class="cls-2" d="M787.27,109.62c11.52-1.21,11.62,18.76-.92,16.6-7.91-1.36-8.01-15.66.92-16.6ZM786.54,111.29c-5.57.94-6.02,12.4.29,13.5,9.18,1.6,9.16-12.66,2.75-13.53-.79-.11-2.25-.1-3.04.04Z"/>
  <path class="cls-2" d="M809.41,114.58c-.15-.14.03-1.98-1.37-2.83-1.97-1.19-6.44-.8-6.44,2.24,0,1.37.71,1.87,1.85,2.35,2.88,1.21,8.13.83,8.12,5.32,0,6.65-12.67,6.26-12.01-.6,2.38-.31,1.36.38,2.11,1.85,1.36,2.65,7.28,2.68,7.91-.1,1.29-5.62-7.51-2.95-9.35-7.1-2.92-6.57,9.91-8.62,10.8-2.14.17,1.27-1.36,1.26-1.62,1.01Z"/>
  <path class="cls-2" d="M626.34,114.58c-.15-.14.03-1.98-1.37-2.83-1.97-1.19-6.44-.8-6.44,2.24s4.89,2.9,6.97,3.7c1.86.72,3.06,2.14,3.01,4.21-.16,6.39-12.8,5.89-12.02-.84,2.38-.31,1.36.38,2.11,1.85,1.34,2.62,7.27,2.74,7.91-.1,1.29-5.62-7.51-2.95-9.35-7.1-2.92-6.57,9.91-8.62,10.8-2.14.17,1.27-1.36,1.26-1.62,1.01Z"/>
  <path class="cls-2" d="M373.12,111.32c.48.48,2.02,3.01,1.53,3.51-2.42.54-1.55-1.14-2.75-2.41s-4.22-1.5-5.85-1.03c-4.48,1.29-4.74,10.44-1.04,12.69,2.18,1.32,5.4,1.09,6.99-.99,1.04-1.36.56-3,2.88-2.51-.76,6.29-9.73,7.98-12.91,2.71-1.93-3.21-1.85-9.17,1.03-11.82,2.52-2.32,7.62-2.65,10.12-.15Z"/>
  <polygon class="cls-2" points="516.92 110.03 516.92 111.47 507.8 111.47 507.8 116.98 515.96 116.98 515.96 118.42 507.8 118.42 507.8 124.65 517.16 124.65 517.16 125.85 506.12 125.85 506.12 110.03 516.92 110.03"/>
  <polygon class="cls-2" points="612.65 110.03 612.65 111.47 603.53 111.47 603.53 116.98 611.69 116.98 611.69 118.42 603.53 118.42 603.53 124.65 612.89 124.65 612.89 125.85 601.86 125.85 601.86 110.03 612.65 110.03"/>
  <path class="cls-2" d="M488.34,110.06l6.02,15.79c-2.78,1.18-2.53-4.34-3.76-4.75-.47-.16-5.7-.14-6.45-.05-.29.04-.49-.01-.71.25-.61.74-1.06,4.36-2.16,4.56-.41.07-.9-.03-1.32,0l6.21-15.67,2.16-.12ZM490.29,119.62l-2.88-7.67c-.35.06-.46.44-.6.72-.99,2.09-1.71,4.75-2.52,6.95h6Z"/>
  <path class="cls-2" d="M461.02,125.85c-.4-.08-1.7.14-1.89-.03-.22-.19-1.28-4.03-1.68-4.62-.3-.38-6.41-.04-7.44-.12-.18.16-1.17,4.04-1.58,4.53-.36.43-1.27.19-1.8.23l6.23-15.71c.53-.17,1.7-.29,2.05.13l6.12,15.58ZM456.7,119.62c-.83-2.2-1.52-4.85-2.52-6.95-.09-.18-.42-.86-.6-.72l-2.88,7.67h6Z"/>
  <path class="cls-2" d="M653.89,110.06l6.02,15.79c-.53-.06-1.42.22-1.8-.24-.58-.7-1.23-4.27-1.96-4.52-.47-.16-5.7-.14-6.45-.05-.29.04-.49-.01-.71.25-.41.5-1.4,4.38-1.58,4.53s-1.5-.06-1.89.02l6.21-15.67,2.16-.11ZM655.84,119.62l-2.88-7.67c-.18-.14-.51.54-.6.72-.99,2.09-1.71,4.75-2.52,6.95h6Z"/>
  <path class="cls-2" d="M351.58,110.07l6.03,15.78c-.43-.08-1.33.15-1.64-.04-.25-.15-1.45-3.99-1.69-4.61-.25-.36-6.44-.05-7.43-.11-.28.59-1.53,4.59-1.75,4.73-.27.18-1.23-.05-1.65.03l6.02-15.44c.43-.63,1.43-.38,2.11-.35ZM353.53,119.62l-3-7.91-3,7.91h6Z"/>
  <path class="cls-2" d="M434.14,119.14v6.71h-1.68v-15.82h7.56c.92,0,2.78,1.15,3.25,2.03,1.64,3.07,0,6.08-3.3,6.78-.29.06-1.9.3-2.1.3h-3.72ZM434.14,117.46h5.64c.08,0,1.15-.49,1.31-.61,1.25-.9,1.36-3.5.24-4.53-.31-.28-1.92-.85-2.27-.85h-4.92v5.99Z"/>
  <path class="cls-2" d="M717.26,110.03v1.44h-9.36v5.51h8.4v1.44h-8.4v5.87s.33.36.36.36h9.24v1.2h-11.04v-15.82h10.8Z"/>
  <path class="cls-2" d="M579.3,110.03v1.44h-9.36v5.51h8.4v1.44h-8.4v5.87s.33.36.36.36h9.24v1.2h-11.04v-15.82h10.8Z"/>
  <path class="cls-2" d="M329.75,110.06l4.7,13.64,4.71-13.63,1.89-.03-5.54,15.79h-2.11s-5.52-15.46-5.52-15.46c-.15-.65,1.47-.25,1.87-.31Z"/>
  <polygon class="cls-2" points="740.29 110.03 740.29 111.47 735.26 111.47 735.26 125.85 733.34 125.85 733.34 111.47 728.3 111.47 728.3 110.03 740.29 110.03"/>
  <polygon class="cls-2" points="523.4 110.03 523.4 124.41 532.04 124.41 532.04 125.85 521.48 125.85 521.48 110.03 523.4 110.03"/>
  <polygon class="cls-2" points="643.12 110.03 643.12 111.47 638.08 111.47 638.08 125.85 636.41 125.85 636.41 111.47 631.37 111.47 631.37 110.03 643.12 110.03"/>
  <rect class="cls-2" x="266.67" y="110.03" width="1.92" height="15.82"/>
  <rect class="cls-2" x="561.07" y="110.03" width="1.68" height="15.82"/>
  <rect class="cls-2" x="379.92" y="110.03" width="1.68" height="15.82"/>
</svg>