<?xml version="1.0" encoding="UTF-8"?>
<svg id="Capa_1" data-name="Capa 1" xmlns="http://www.w3.org/2000/svg" viewBox="0 0 224.77 209.12">
  <defs>
    <style>
      .cls-1 {
        fill: #fcc40d;
      }
    </style>
  </defs>
  <path class="cls-1" d="M142.74,101.74c.8.81,1.18,2.1,1.28,3.22v48.79c-.08,2.84-1.91,4.66-4.7,4.9h-65.65c-2.43-.22-4.24-1.85-4.5-4.3v-63.38c.23-2.38,2.12-4.16,4.5-4.3l80.41.06c2.38.5,3.75,2.25,3.96,4.64v78.97c-.22,2.57-1.68,4.38-4.3,4.7h-48.64c-5.28-.82-5.49-8.13-.38-9.39h38.81c2.48-.09,4.58-1.74,4.7-4.31v-60.98c-.07-1.74-1.24-3.35-2.9-3.9-21.07-.38-42.26-.19-63.35-.1-1.46.58-2.7,1.81-3,3.4l.02,45.97c.49,1.67,1.89,3.11,3.69,3.31h47.64c1.94-.12,3.52-1.64,3.88-3.52v-32.15c-.34-1.73-1.9-3.32-3.68-3.52l-34.6.02c-2.28.51-3.5,1.98-3.72,4.28.39,4.99-.56,10.84.05,15.73.27,2.15,1.71,3.61,3.85,3.95,6.27-.41,13.23.54,19.42,0,5.19-.45,5.49-8.01,1.29-9.5-1.67-.59-3.36-.11-5.05-.36-5.12-.73-5.63-8.97,1.15-9.54,2.51-.21,11.35-.32,13.42.38,1.87.63,2.91,2.42,3.09,4.31.57,6.24-.42,13.27.01,19.59-.23,2.66-2.04,4.47-4.7,4.7-12.19-.7-25.37.9-37.44,0-2.4-.18-4.25-1.46-4.69-3.91v-35.19c.2-2.34,2.23-3.95,4.5-4.1h52.24c1.21.09,2.58.62,3.42,1.48Z"/>
  <g>
    <path class="cls-1" d="M17.69,51.14c2.97-.43,10.66-.33,13.76-.06,1.58.14,2.84.6,3.08,2.32.37,2.75-.35,6.27,0,8.99.09.67.42,1.01,1.1,1.1,3.01.39,9.35-.73,11.79.41.31.15.61.3.82.58,1.04,1.38.25,5.99.5,7.9.04.34.08.61.41.79l17.32.09c.88.06,1.89.49,2.59,1.01.65.48,4.01,3.63,4.39,4.21,1.53,2.34-.5,4.69-3.15,4.14-2.48-.51-3.24-3.77-6.27-4.13-5.7-.68-12.6.5-18.4-.01-4.13-.36-2.3-5.84-2.68-8.71-.09-.65-.24-.81-.9-.9-3.08-.4-7.03.32-10.21,0-2.43-.24-2.91-1.22-3.1-3.5-.17-1.97-.02-4.37-.01-6.4,0-1.39.65-2.45-1.49-2.69-3.06-.34-6.73.31-9.82,0-3.14-.3-3.26-4.65.26-5.16Z"/>
    <path class="cls-1" d="M181.88,68.93c-.57.57-.06,6.08-.29,7.4-.25,1.4-1.35,1.84-2.65,1.95-5.79.53-12.69-.66-18.4.01-3.1.37-3.95,3.94-6.63,4.18s-4.25-2.09-2.7-4.3c.43-.62,3.62-3.6,4.3-4.1.56-.41,1.24-.68,1.89-.91l18.02-.19c.33-.18.36-.45.41-.79.42-3.26-1.62-8.51,3.09-8.91,1.79-.15,9.98.35,10.8-.21.37-.26.47-.85.52-1.28.29-2.73-.36-6.11.02-8.78.22-1.55,1.48-2,2.88-2.12,3.15-.27,10.95-.37,13.96.06,3.5.5,3.24,4.73.64,5.13-2.93.45-6.93-.28-10,0-1.08.1-1.76.3-1.9,1.5-.31,2.71.35,6.09-.01,8.78-.25,1.84-1.63,2.19-3.28,2.32-3.09.24-6.54-.27-9.62-.02-.31.03-.82.03-1.04.26Z"/>
    <path class="cls-1" d="M175.79,44.94c2.54-.25,4.42,2.99,2.25,4.86l-21.04,19.16c-2.09,1.63-5.93-.34-4.68-3.08,6.7-6.99,14.31-13.16,21.31-19.89.61-.51,1.36-.97,2.16-1.05Z"/>
    <path class="cls-1" d="M48.31,45.13c.74-.09,1.75.34,2.35.76,5.27,5,10.81,9.73,16.11,14.69,1.07,1,5.45,4.87,5.71,5.9.65,2.51-3.04,4.37-4.9,2.69l-21.33-19.67c-1.37-1.7.03-4.13,2.06-4.36Z"/>
    <g>
      <path class="cls-1" d="M139.35,34.15c2-.42,3.03,1.6,2.56,3.36-.54,2.02-5.22,5.28-6.07,7.46.05.56,4.53,4.99,5.24,5.95,1.19,1.59,1.19,2.57,0,4.16-1.36,1.82-3.86,3.76-5.09,5.51-1.08,1.54.37,2.04,1.3,3.1,2.03,2.31,3.94,3.64,1.6,6.6-3.12,3.94-7.18,7.51-10.3,11.5-1.89,2.14-4.65.84-4.2-2,.11-.71.83-1.55,1.28-2.11,2.35-2.94,5.46-5.67,7.81-8.59.5-.62.99-1.1.51-1.91-.42-.72-2.26-2.26-2.91-3.08-1.97-2.46-1.66-3.08.2-5.4,1.37-1.71,3.17-3.32,4.59-5,.48-.6.3-.93-.09-1.49-1.25-1.76-4.47-4.2-5.37-6.02-.62-1.25-.2-2.35.58-3.37,1.63-2.13,4.77-5.61,6.7-7.5.46-.45.98-1.01,1.65-1.15Z"/>
      <path class="cls-1" d="M85.12,34.14c.93-.2,1.49.22,2.16.76,1.65,1.31,4.95,5.23,6.4,7s2.45,2.45,1.07,4.67c-.71,1.14-5.51,5.85-5.5,6.43.24.52.66,1.06,1.03,1.5,1.18,1.41,5.01,4.9,5.41,6.39.67,2.45-3.69,5.05-4.52,7.09,3.05,3.92,6.63,7.4,9.77,11.25.98,2.47-1.64,5.03-3.76,2.76-3.2-4.21-7.88-8.02-11-12.2-2.17-2.91,1.15-4.82,2.9-6.89.69-.82,1.2-1.12.5-2.1-1.43-1.99-3.98-3.96-5.4-6-.9-1.28-.85-2.31.03-3.56.8-1.13,5.3-5.54,5.37-6.24.04-.36-.13-.6-.31-.88-1.02-1.58-3.63-3.62-4.89-5.31-.76-1.02-1.37-2.07-.76-3.35.2-.42,1.04-1.2,1.5-1.31Z"/>
      <path class="cls-1" d="M112.14,38.55c2.07-.43,3.09.68,3.26,2.64.73,8.14-.57,17.35,0,25.6-.39,3.21-4.7,3.19-5.02-.4-.72-8.08.55-17.2,0-25.39.18-1.06.56-2.21,1.75-2.45Z"/>
      <path class="cls-1" d="M111.93,70.32c.87-.2,1.58-.04,2.33.39,1.26.73,6.82,5.28,7.82,6.39,1.34,1.48,1.38,3.63-.38,4.78-.85.56-1.7.41-2.57-.03-1.76-.89-3.99-3.51-5.74-4.66-.2-.13-.44-.32-.7-.31-.55.02-5.14,4.36-6.42,4.97-2.86,1.36-4.94-1.89-3.28-4.27.81-1.16,6.28-5.46,7.71-6.49.33-.24.86-.67,1.24-.76Z"/>
    </g>
  </g>
  <g>
    <path class="cls-1" d="M162.56,128.09c.44-.1,1.07-.09,1.51,0,1.5.32,8.41,7.17,10.15,8.65.51.44,1.13.95,1.7,1.3.41,0,3.71-3.26,4.44-3.77,1.73-1.21,2.51-1.1,4.16.17,1.79,1.38,3.66,3.75,5.41,4.99,1.19.84,1.77-.1,2.7-.9,1.16-.99,4.49-4.5,5.71-4.69.95-.15,1.64.03,2.39.59,1.51,1.11,7.44,6.28,8.41,7.59,1.62,2.18-.6,4.29-2.76,3.56s-4.81-4.55-6.84-5.76c-.94-.56-1.79.48-2.52,1.11-2.03,1.74-4.92,5.91-7.79,4.19-2.04-1.22-4.16-4.1-6.12-5.48-.46-.32-.89-.62-1.41-.21-1.3.94-3.72,3.96-5.2,4.2-1.7.27-2.3-.51-3.49-1.48-3.86-3.12-7.41-6.97-11.28-10.12-1.24-1.12-.85-3.55.82-3.94Z"/>
    <path class="cls-1" d="M170.3,99.54c-1.56,1.37-3.7,3.84-5.37,4.93-1.03.67-2.57.53-3.41-.39-1.58-1.74.29-3.13,1.51-4.31,2.91-2.83,6.68-6.22,9.81-8.8,1.57-1.29,2.58-2.59,4.67-1.26.88.56,4.12,3.93,4.64,3.98.42.04.86-.37,1.18-.62,1.89-1.41,3.92-4.08,5.92-5.28,1.16-.69,2.02-.77,3.17,0,2,1.33,3.94,3.81,5.91,5.29.36.29.86.29,1.22,0,1.79-1.26,5.56-5.85,7.62-6,2.2-.16,3.24,2.22,1.78,3.99-1.27,1.55-4.83,4.48-6.51,5.9-1.23,1.04-2.33,2.38-4.1,2.08-.9-.15-3.66-2.72-4.52-3.48-1.14-1.02-2.31-3.22-3.9-2.1-1.69,1.19-3.51,3.44-5.21,4.79-1.36,1.08-2.22,1.72-3.92.73-.88-.51-4.44-4.13-4.87-4.13-.37,0-4.95,4.06-5.64,4.67Z"/>
    <g>
      <path class="cls-1" d="M176.98,114.11l25.77-.05c3.31.23,3.64,4.37.4,5h-26.22c-3.06-.48-3-4.45.05-4.95Z"/>
      <path class="cls-1" d="M163.98,106.1c.56-.08,1.43.11,1.92.39.91.5,6.24,7,7.01,8.19.72,1.11.96,1.8.32,3.08-.43.87-6.39,7.98-7.14,8.46-2.69,1.72-5.73-.8-3.84-3.83,1.23-1.97,3.42-3.89,4.75-5.86.07-.37-4.1-5.04-4.66-5.89s-.85-1.16-.72-2.28c.12-1.05,1.33-2.12,2.36-2.26Z"/>
    </g>
  </g>
  <g>
    <path class="cls-1" d="M64.92,130.09c1.92-.14,3.32,1.94,2.13,3.55-4.03,3.58-7.74,7.68-11.9,11.11-3.85,3.17-5.38-1.9-8.5-3.32-.43,0-.68.19-1.01.42-1.53,1.07-3.42,3.51-5.01,4.79-.79.64-1.63,1.33-2.7,1.13-2.06-.39-6.52-6.09-7.49-6.11-.67-.02-4.29,3.8-5.11,4.5-1.3,1.13-2.38,2.29-4.22,1.41-1.46-.7-1.63-2.07-.69-3.31,1.26-1.69,5.73-5.63,7.51-7.09,1.44-1.19,2.31-1.86,4.07-.66,1.91,1.29,3.77,3.83,5.64,5.16.66.47.73.48,1.4,0,1.92-1.37,3.82-4.03,5.8-5.4.4-.28,1.19-.71,1.65-.76,1.6-.15,4.52,3.33,5.75,4.37.46.38,1.01.14,1.41-.21,3.02-2.63,5.92-5.89,9.01-8.39.65-.52,1.39-1.1,2.25-1.16Z"/>
    <path class="cls-1" d="M60.84,103.99c-2.63-2.34-5.09-4.86-7.82-7.1l-.46.07c-1.55,1.23-4.22,4.78-6.29,4.49-1.6-.22-5.08-4.33-6.52-5.49-.67-.54-1.23-1.23-2.12-.71-.63.37-1.98,2.08-2.69,2.71-.88.79-3.08,2.93-4.12,3.08-1.64.24-2.92-1.27-4.09-2.28-1.47-1.28-5.06-4.34-6.11-5.7-1.4-1.82-.47-4.15,1.78-3.99,1.78.13,4.95,3.96,6.43,5.18.64.53,1.41,1.41,2.21.81l5.71-5.29c1.14-.76,2.18-.72,3.29.09,1.95,1.44,3.93,4.08,5.8,5.4.53.37.79.58,1.41.21.99-.58,2.73-2.89,3.91-3.7,2.32-1.59,3.7.31,5.39,1.78,2.74,2.39,5.81,5.25,8.4,7.8,1.42,1.39,4.14,3.48,1.39,5.19-2.14,1.33-4.06-1.27-5.52-2.57Z"/>
    <path class="cls-1" d="M63.92,108.1c.66-.05,1.21.19,1.74.56,3.77,2.63-2.79,7.23-4.07,9.73-.14.69,4.82,5.66,5.13,7.01.73,3.24-2.75,4.59-5.07,2.26-.98-.99-5.66-6.77-6.18-7.82-.54-1.1-.44-1.96.19-2.96.78-1.22,6.08-7.86,7.02-8.38.28-.15.93-.36,1.23-.39Z"/>
    <path class="cls-1" d="M26.5,116.51l24.96-.05c2.99.25,3.12,4.17,0,4.4-7.87-.58-16.88.78-24.61,0-3.19-.32-3.19-3.91-.35-4.34Z"/>
  </g>
</svg>